<svg width="82" height="82" viewBox="0 0 82 82" fill="none" xmlns="http://www.w3.org/2000/svg">
<path fill-rule="evenodd" clip-rule="evenodd" d="M72.6362 52.5756H42.5149C49.3533 52.0019 54.7244 46.2699 54.7244 39.2833C54.7244 31.9162 48.7521 25.9439 41.3849 25.9439H31.5431C33.7882 22.924 35.1166 19.1822 35.1166 15.1301C35.1166 8.81231 31.8874 3.24875 26.9894 0H72.6362C76.9997 0 80.5363 3.53706 80.5363 7.90023V44.6754C80.5363 49.0385 76.9997 52.5756 72.6362 52.5756ZM16.9739 25.9514C22.9504 25.9514 27.7952 21.1066 27.7952 15.1301C27.7952 9.15372 22.9504 4.30885 16.9739 4.30885C10.9975 4.30885 6.15266 9.15372 6.15266 15.1301C6.15266 21.1066 10.9975 25.9514 16.9739 25.9514ZM47.4029 39.2833C47.4029 35.9597 44.7085 33.2653 41.3849 33.2653H16.9761C8.40731 33.2653 1.46094 40.2117 1.46094 48.7805V55.8415C1.46094 58.9586 3.98786 61.4854 7.10497 61.4854H8.11029L9.76189 76.7719C10.0832 79.7462 12.5939 82 15.5851 82H18.527C21.4499 82 23.9253 79.8452 24.3283 76.9506L28.7333 45.3014H41.3849C44.7085 45.3014 47.4029 42.607 47.4029 39.2833Z" fill="white"/>
</svg>
