<svg width="35" height="35" viewBox="0 0 35 35" fill="none" xmlns="http://www.w3.org/2000/svg">
<g clip-path="url(#clip0_373_21)">
<path fill-rule="evenodd" clip-rule="evenodd" d="M0.625 3.125C0.625 1.74429 1.74429 0.625 3.125 0.625H19.2167C20.5974 0.625 21.7167 1.74429 21.7167 3.125V10.1584H15.7834C12.6768 10.1584 10.1584 12.6768 10.1584 15.7834V21.7167H3.125C1.74429 21.7167 0.625 20.5974 0.625 19.2167V3.125ZM7.00365 9.37172C6.97367 9.37315 6.94353 9.37385 6.9132 9.37385C5.51443 9.37385 4.3805 8.23992 4.3805 6.84117L4.38055 6.82463L4.3805 6.80817C4.3805 5.42745 5.49977 4.30818 6.8805 4.30818L6.91468 4.30785C8.31345 4.30785 9.44737 5.44177 9.44737 6.84055C9.44737 8.20955 8.36123 9.32485 7.00365 9.37172ZM15.7834 13.2834C14.4027 13.2834 13.2834 14.4027 13.2834 15.7834V31.875C13.2834 33.2557 14.4027 34.375 15.7834 34.375H31.875C33.2557 34.375 34.375 33.2557 34.375 31.875V15.7834C34.375 14.4027 33.2557 13.2834 31.875 13.2834H15.7834ZM27.2038 22.4289C28.5845 22.4289 29.7038 21.3096 29.7038 19.9289C29.7038 18.5482 28.5845 17.4289 27.2038 17.4289C25.823 17.4289 24.7037 18.5482 24.7037 19.9289C24.7037 21.3096 25.823 22.4289 27.2038 22.4289ZM22.9545 27.7295C22.9545 29.1103 21.8353 30.2295 20.4545 30.2295C19.0738 30.2295 17.9545 29.1103 17.9545 27.7295C17.9545 26.3487 19.0738 25.2295 20.4545 25.2295C21.8353 25.2295 22.9545 26.3487 22.9545 27.7295Z" fill="white"/>
</g>
<defs>
<clipPath id="clip0_373_21">
<rect width="35" height="35" fill="white"/>
</clipPath>
</defs>
</svg>
