<svg width="198" height="45" viewBox="0 0 198 45" fill="none" xmlns="http://www.w3.org/2000/svg">
<path d="M2.38432 42.5026C1.51983 42.5011 0.812727 42.382 0.26301 42.1453C0.274566 35.5437 0.860816 26.1336 2.02176 13.9148L2.56287 7.84465C2.01391 7.17568 1.48522 6.15308 0.97679 4.77686C0.507657 3.40071 0.273573 2.43757 0.274536 1.88744L0.333788 1.71072C0.451948 1.55374 1.43456 1.41793 3.28163 1.30328C5.12871 1.18862 7.1525 1.13322 9.35302 1.13708C11.5928 1.141 12.8108 1.24137 13.0069 1.43819C13.2031 1.635 14.1418 4.11224 15.8232 8.86989C17.5046 13.5882 18.7557 17.2449 19.5763 19.8398C19.6546 20.0364 19.7526 20.1348 19.8705 20.135C19.9884 20.1352 20.1856 19.723 20.4621 18.8983C20.7387 18.0343 21.8834 15.0891 23.8962 10.0629C25.9092 4.99733 27.2502 2.13113 27.9194 1.46429C28.2737 1.11125 30.1798 0.937761 33.6377 0.943814C37.0957 0.949867 38.8245 1.05113 38.8242 1.24761C38.823 1.91562 38.5459 3.07434 37.9929 4.72377C37.4792 6.37326 37.0449 7.53171 36.6901 8.1991C38.0436 20.658 38.7119 31.6815 38.6952 41.2695C38.6945 41.6624 37.8883 42.0146 36.2767 42.3262C34.7042 42.6771 33.4072 42.8517 32.3855 42.8499C31.3639 42.8481 30.8532 42.7686 30.8534 42.6114C30.9741 41.0005 31.0376 38.4072 31.0439 34.8313C31.0502 31.2162 30.9595 26.9328 30.7717 21.9813C30.586 15.8117 30.3556 12.7266 30.0806 12.7261L29.7263 13.0792C28.9378 14.5317 27.9119 16.9858 26.6484 20.4416C25.4242 23.8974 24.3971 26.9999 23.5671 29.7492L22.3222 33.814C22.1249 34.2459 21.5351 34.461 20.5527 34.4593C19.6097 34.4576 18.8239 34.3973 18.1954 34.2783C17.6061 34.1594 17.292 34.041 17.2529 33.923C17.1358 33.4906 15.9236 30.0501 13.6165 23.6017C11.3095 17.114 9.97948 13.6537 9.62658 13.2208C9.50911 12.9848 9.41108 12.8668 9.33249 12.8666C9.2539 12.8665 9.19472 13.0039 9.15494 13.2789C8.44137 16.8535 8.0785 22.1184 8.06632 29.0737C8.05422 35.9896 8.14544 39.9978 8.33999 41.0984C7.35596 42.0398 5.37074 42.5079 2.38432 42.5026ZM64.5153 27.0505C64.5067 31.9624 64.5606 34.831 64.6771 35.6564C64.9876 37.8182 65.6529 39.3715 66.673 40.3164C66.6722 40.7486 65.8852 41.3956 64.3119 42.2574C62.7778 43.1192 61.3821 43.549 60.1247 43.5468C59.771 43.5462 59.3986 43.015 59.0075 41.9534C58.6164 40.931 58.382 40.1644 58.3043 39.6534C58.2659 39.1425 58.227 38.887 58.1877 38.8869L58.0107 39.0045C55.9252 40.6512 53.4874 41.4722 50.6975 41.4673C47.9075 41.4624 45.7475 40.7906 44.2173 39.4519C42.7265 38.074 41.983 36.2847 41.9869 34.0842C41.9907 31.8837 42.4655 30.0377 43.4112 28.5461C44.3963 27.0153 45.5378 25.8581 46.836 25.0745C48.1341 24.2908 49.5694 23.6646 51.1421 23.1958C53.5404 22.4141 55.4273 22.0245 56.8026 22.0269L56.9206 21.9682C56.924 20.0427 54.4894 19.0757 49.6168 19.0672C47.6913 19.0638 46.2569 19.1399 45.3136 19.2954L45.2546 19.2953C45.256 18.5094 45.4935 17.5275 45.9671 16.3494C46.48 15.1715 46.8939 14.4059 47.2089 14.0528C47.5632 13.6998 48.9781 13.5255 51.4537 13.5298C55.9333 13.5376 59.2326 14.4079 61.3515 16.1406C63.4705 17.834 64.5268 20.4686 64.5206 24.0445L64.5153 27.0505ZM57.9661 30.8114L57.97 28.5716C57.9715 27.7071 57.9526 27.2748 57.9133 27.2747C55.2806 27.2701 53.0003 27.9538 51.0724 29.3258C49.8527 30.1881 49.2418 31.2677 49.2395 32.5644C49.2381 33.3896 49.5316 34.0778 50.12 34.6289C50.7085 35.1801 51.5921 35.4567 52.771 35.4588C53.9891 35.4609 55.149 35.1093 56.2505 34.4039C57.3912 33.6986 57.9631 32.5011 57.9661 30.8114ZM77.4812 1.60998C77.401 2.51363 77.2984 4.98904 77.1735 9.03622C80.1206 9.04138 81.594 9.1029 81.5938 9.22079C81.5915 10.5568 81.3929 11.755 80.9981 12.8152C80.6034 13.8362 80.2292 14.3464 79.8755 14.3458L77.1052 14.3409C77.0165 20.1565 76.9689 24.8914 76.9625 28.5459C76.9562 32.161 77.0109 34.5778 77.1266 35.7961C77.3588 37.8399 78.1614 39.5113 79.5345 40.8105C79.5337 41.2427 78.7664 41.8701 77.2324 42.6926C75.7378 43.5152 74.3224 43.9253 72.9864 43.923C72.8685 43.9228 72.6331 43.7259 72.2801 43.3323C71.9665 42.9388 71.6139 42.2898 71.2226 41.3853C70.8705 40.4809 70.6363 39.5964 70.5199 38.7317C70.4428 37.8671 70.4089 34.7823 70.4182 29.4775C70.4275 24.1727 70.4952 19.1627 70.6213 14.4475L67.3205 14.5006C67.1243 14.3038 67.0276 13.4588 67.0302 11.9656C67.0329 10.4331 67.2113 9.50997 67.5655 9.19623C68.4301 9.15845 69.4715 9.12098 70.6897 9.08382C70.6937 6.80471 70.6373 5.33104 70.5206 4.66282C70.4039 3.9946 70.3456 3.60155 70.3458 3.48366C70.3465 3.09071 71.0153 2.63999 72.3522 2.13149C73.7285 1.62306 74.9274 1.36974 75.9491 1.37153C76.9707 1.37332 77.4814 1.4528 77.4812 1.60998ZM83.5296 28.7931L83.3885 8.33979C83.3952 4.52818 83.4969 2.5243 83.6938 2.32817C84.1661 1.85746 84.9332 1.40691 85.9949 0.976519C87.0566 0.54613 88.0787 0.331795 89.061 0.333515C90.0434 0.335235 90.5345 0.414684 90.5342 0.571865C90.4943 0.925451 90.4112 3.49914 90.2849 8.29292C90.1586 13.0867 90.0942 16.2302 90.0916 17.7234L90.0906 18.2539C90.0903 18.4504 90.1491 18.5487 90.2669 18.5489L91.4479 17.3721C91.8808 16.9799 92.7462 16.451 94.0441 15.7852C95.3814 15.0802 96.6198 14.7288 97.7593 14.7308C98.9382 14.7328 99.9006 14.931 100.647 15.3252C101.432 15.7196 102.079 16.1922 102.589 16.7433C103.099 17.2943 103.53 18.1006 103.882 19.1622C104.233 20.1845 104.487 21.1476 104.643 22.0517C104.838 22.9165 104.993 24.1153 105.108 25.648C105.222 27.7309 105.277 30.3637 105.271 33.5466L105.022 41.3856C104.903 41.6997 104.235 41.9736 103.016 42.2072C101.798 42.4409 100.795 42.557 100.009 42.5556L98.0648 42.2575C98.464 38.7217 98.6664 35.323 98.6721 32.0615C98.6778 28.8 98.4464 26.324 97.9778 24.6335C97.5092 22.943 96.548 22.0965 95.094 22.0939C94.151 22.0923 93.2662 22.464 92.4397 23.2092C91.6132 23.9543 91.0421 24.7 90.7264 25.446L90.194 26.565C90.2678 29.2765 90.302 32.1844 90.2966 35.2887C90.2912 38.393 90.1901 40.0236 89.9933 40.1804C88.8126 41.2393 86.6505 41.766 83.5069 41.7605C83.1925 41.7599 83.0354 41.7007 83.0356 41.5828C83.353 39.8544 83.5177 35.5912 83.5296 28.7931ZM132.021 6.65664C131.392 6.57695 130.666 6.53638 129.84 6.53494C129.054 6.53356 128.072 6.61043 126.893 6.76555C125.753 6.92073 124.554 7.17405 123.296 7.5255C122.077 7.83773 121.074 8.34681 120.287 9.05275C119.5 9.75868 119.106 10.6225 119.104 11.6442C119.102 12.6265 119.69 13.5117 120.867 14.2997C122.084 15.0484 123.537 15.7583 125.225 16.4292C126.914 17.0609 128.602 17.7908 130.291 18.619C132.018 19.4472 133.47 20.6679 134.646 22.281C135.861 23.855 136.467 25.7618 136.463 28.0017C136.456 31.9705 134.545 35.3465 130.728 38.1298C126.951 40.8738 122.174 42.2408 116.398 42.2307C113.49 42.2256 111.329 42.0646 109.915 41.7478C109.562 41.3935 109.389 39.2909 109.396 35.44C109.402 31.5498 109.485 29.2119 109.644 28.4263C109.762 28.0728 110.451 27.6418 111.709 27.1331C112.967 26.6245 114.186 26.3712 115.365 26.3733C115.357 31.0101 115.843 33.8205 116.823 34.8046C117.216 35.1983 117.962 35.3961 119.062 35.398C121.577 35.4024 123.759 34.6989 125.609 33.2875C127.497 31.8762 128.443 30.2078 128.447 28.2823C128.449 26.9856 127.842 25.845 126.625 24.8605C125.409 23.876 123.917 23.0285 122.15 22.3181C120.423 21.5685 118.695 20.7992 116.967 20.0103C115.24 19.1821 113.768 18.0596 112.552 16.6428C111.337 15.2261 110.731 13.555 110.734 11.6295C110.739 8.76097 112.453 6.15084 115.876 3.79913C119.338 1.40819 124.33 0.218426 130.853 0.229844C132.386 0.232526 133.25 0.332277 133.446 0.529095C133.485 0.647048 133.505 0.941794 133.504 1.41334C133.503 1.84558 133.364 2.70983 133.087 4.00608C132.809 5.30234 132.454 6.18585 132.021 6.65664ZM148.684 1.73462C148.604 2.63827 148.501 5.11368 148.376 9.16086C151.324 9.16602 152.797 9.22754 152.797 9.34542C152.794 10.6815 152.596 11.8796 152.201 12.9399C151.806 13.9609 151.432 14.471 151.079 14.4704L148.308 14.4656C148.219 20.2811 148.172 25.0161 148.165 28.6705C148.159 32.2857 148.214 34.7024 148.33 35.9208C148.562 37.9645 149.364 39.6359 150.737 40.9351C150.737 41.3673 149.969 41.9947 148.435 42.8172C146.941 43.6398 145.525 44.0499 144.189 44.0476C144.072 44.0474 143.836 43.8505 143.483 43.4569C143.169 43.0634 142.817 42.4144 142.426 41.51C142.073 40.6056 141.839 39.721 141.723 38.8563C141.646 37.9917 141.612 34.907 141.621 29.6021C141.63 24.2973 141.698 19.2873 141.824 14.5721L138.523 14.6253C138.327 14.4285 138.231 13.5834 138.233 12.0902C138.236 10.5577 138.414 9.63461 138.769 9.32087C139.633 9.28309 140.674 9.24562 141.893 9.20845C141.897 6.92934 141.84 5.45568 141.724 4.78745C141.607 4.11923 141.549 3.72618 141.549 3.6083C141.55 3.21535 142.218 2.76462 143.555 2.25613C144.931 1.7477 146.13 1.49438 147.152 1.49617C148.174 1.49796 148.684 1.57744 148.684 1.73462ZM175.666 27.2451C175.657 32.157 175.711 35.0256 175.827 35.851C176.138 38.0128 176.803 39.5661 177.823 40.511C177.823 40.9432 177.036 41.5902 175.462 42.4519C173.928 43.3137 172.532 43.7435 171.275 43.7413C170.921 43.7407 170.549 43.2096 170.158 42.1479C169.767 41.1256 169.532 40.3589 169.455 39.8479C169.416 39.337 169.377 39.0816 169.338 39.0815L169.161 39.1991C167.076 40.8458 164.638 41.6667 161.848 41.6619C159.058 41.657 156.898 40.9852 155.368 39.6465C153.877 38.2685 153.133 36.4793 153.137 34.2788C153.141 32.0783 153.616 30.2322 154.562 28.7407C155.547 27.2099 156.688 26.0527 157.986 25.269C159.284 24.4854 160.72 23.8592 162.292 23.3904C164.691 22.6087 166.578 22.219 167.953 22.2215L168.071 22.1627C168.074 20.2373 165.64 19.2703 160.767 19.2617C158.842 19.2584 157.407 19.3345 156.464 19.49L156.405 19.4899C156.406 18.704 156.644 17.722 157.117 16.544C157.63 15.366 158.044 14.6005 158.359 14.2474C158.714 13.8944 160.128 13.72 162.604 13.7243C167.084 13.7322 170.383 14.6025 172.502 16.3352C174.621 18.0286 175.677 20.6632 175.671 24.239L175.666 27.2451ZM169.116 31.006L169.12 28.7661C169.122 27.9016 169.103 27.4694 169.064 27.4693C166.431 27.4647 164.151 28.1484 162.223 29.5203C161.003 30.3827 160.392 31.4622 160.39 32.759C160.388 33.5842 160.682 34.2723 161.27 34.8235C161.859 35.3747 162.742 35.6513 163.921 35.6533C165.139 35.6555 166.299 35.3038 167.401 34.5985C168.542 33.8931 169.113 32.6956 169.116 31.006ZM181.786 32.4428L181.691 19.0626C181.695 16.7442 181.776 15.5065 181.933 15.3496C182.366 14.9181 183.114 14.5462 184.175 14.2336C185.237 13.8819 186.22 13.7067 187.123 13.7083C188.066 13.71 188.538 13.809 188.537 14.0055C188.418 15.0663 188.357 16.2843 188.354 17.6596C188.352 18.9957 188.39 19.6638 188.469 19.6639C188.547 19.664 188.626 19.6249 188.705 19.5464C188.783 19.4287 188.901 19.2717 189.059 19.0755C189.256 18.8401 189.63 18.4478 190.181 17.8986C190.771 17.3495 191.401 16.8791 192.07 16.4873C193.761 15.39 195.57 14.843 197.495 14.8464C197.809 15.3578 197.964 16.144 197.963 17.2049C197.959 19.4447 197.681 21.0357 197.129 21.9778L196.892 22.4489L196.126 22.3297C193.297 22.3248 191.075 23.4801 189.46 25.7957C188.829 26.7376 188.514 27.4444 188.513 27.9159L188.504 33.1029C188.496 37.8183 188.433 40.2348 188.314 40.3525C187.212 41.4115 185.05 41.9382 181.828 41.9326C181.514 41.932 181.357 41.8728 181.357 41.7549C181.635 40.2229 181.777 37.1189 181.786 32.4428Z" fill="white"/>
</svg>
