<svg width="31" height="31" viewBox="0 0 31 31" fill="none" xmlns="http://www.w3.org/2000/svg">
<g clip-path="url(#clip0_374_25)" filter="url(#filter0_d_374_25)">
<path d="M21.6032 -0.00170898C21.275 -0.00170898 20.95 0.0638787 20.6474 0.191203C20.3467 0.317736 20.0742 0.502705 19.8456 0.735363L6.31203 14.2032C6.21155 14.3032 6.13865 14.4275 6.10044 14.564L4.03044 21.9568C3.95043 22.2425 4.03077 22.5493 4.24061 22.7592C4.45045 22.969 4.75716 23.0493 5.04293 22.9693L12.4358 20.8993C12.5723 20.8611 12.6966 20.7881 12.7965 20.6877L26.2642 7.15437L26.2665 7.15216C26.4963 6.92352 26.6788 6.65176 26.8035 6.35243C26.9287 6.05215 26.9931 5.73005 26.9931 5.40473C26.9931 5.07941 26.9287 4.75731 26.8035 4.45702C26.6788 4.15769 26.4963 3.88591 26.2665 3.65729L26.2642 3.65509L23.3625 0.73708C23.1337 0.503613 22.8605 0.318046 22.559 0.191203C22.2564 0.0638787 21.9315 -0.00170898 21.6032 -0.00170898Z" fill="#333333"/>
</g>
<defs>
<filter id="filter0_d_374_25" x="0" y="0" width="31" height="31" filterUnits="userSpaceOnUse" color-interpolation-filters="sRGB">
<feFlood flood-opacity="0" result="BackgroundImageFix"/>
<feColorMatrix in="SourceAlpha" type="matrix" values="0 0 0 0 0 0 0 0 0 0 0 0 0 0 0 0 0 0 127 0" result="hardAlpha"/>
<feOffset dy="4"/>
<feGaussianBlur stdDeviation="2"/>
<feComposite in2="hardAlpha" operator="out"/>
<feColorMatrix type="matrix" values="0 0 0 0 0 0 0 0 0 0 0 0 0 0 0 0 0 0 0.25 0"/>
<feBlend mode="normal" in2="BackgroundImageFix" result="effect1_dropShadow_374_25"/>
<feBlend mode="normal" in="SourceGraphic" in2="effect1_dropShadow_374_25" result="shape"/>
</filter>
<clipPath id="clip0_374_25">
<rect width="23" height="23" fill="white" transform="translate(4)"/>
</clipPath>
</defs>
</svg>
