<svg width="49" height="49" viewBox="0 0 49 49" fill="none" xmlns="http://www.w3.org/2000/svg">
<g clip-path="url(#clip0_339_16)">
<path d="M37.5025 -0.00341797C36.8032 -0.00341797 36.1109 0.136312 35.4662 0.407568C34.8257 0.677138 34.245 1.0712 33.7579 1.56687L4.92562 30.2592C4.71156 30.4722 4.55627 30.737 4.47486 31.0278L0.0648546 46.7779C-0.105613 47.3865 0.0655519 48.04 0.512603 48.4873C0.959658 48.9342 1.61308 49.1054 2.22189 48.9349L17.9719 44.5249C18.2627 44.4434 18.5275 44.288 18.7405 44.0741L47.4324 15.2422L47.4373 15.2374C47.9269 14.7503 48.3158 14.1714 48.5814 13.5337C48.8481 12.8939 48.9853 12.2077 48.9853 11.5147C48.9853 10.8216 48.8481 10.1354 48.5814 9.49561C48.3158 8.85791 47.9269 8.2789 47.4373 7.79184L47.4324 7.78715L41.2507 1.57052C40.7631 1.07314 40.1811 0.6778 39.5388 0.407568C38.8941 0.136312 38.2018 -0.00341797 37.5025 -0.00341797Z" fill="white"/>
</g>
<defs>
<clipPath id="clip0_339_16">
<rect width="49" height="49" fill="white"/>
</clipPath>
</defs>
</svg>
