<svg width="48" height="48" viewBox="0 0 48 48" fill="none" xmlns="http://www.w3.org/2000/svg">
<g clip-path="url(#clip0_352_25)">
<path fill-rule="evenodd" clip-rule="evenodd" d="M4.93491 1.50631C5.89937 0.541834 7.20751 0 8.57146 0H42.8571C44.221 0 45.5294 0.541834 46.4938 1.50631C47.4583 2.47078 48 3.77887 48 5.14286V39.4286C48 40.7925 47.4583 42.1008 46.4938 43.0653C45.5294 44.0297 44.221 44.5714 42.8571 44.5714H15.6396L2.1301 47.9489C1.52309 48.1005 0.88163 47.9095 0.456511 47.4504C0.0313921 46.9913 -0.109851 46.3371 0.0880069 45.7437L3.42861 35.7219V5.14286C3.42861 3.7789 3.97046 2.47078 4.93491 1.50631ZM24.4528 12.4427C25.0835 12.1815 25.7776 12.1131 26.4472 12.2463C27.1169 12.3795 27.732 12.7083 28.2147 13.191C28.6975 13.6738 29.0263 14.2889 29.1595 14.9585C29.2927 15.6281 29.2243 16.3222 28.963 16.953C28.7017 17.5837 28.2593 18.1229 27.6916 18.5022C27.1239 18.8815 26.4565 19.0839 25.7738 19.0839C24.5903 19.0839 23.6309 20.0433 23.6309 21.2268V24.9567C23.6309 26.1401 24.5903 27.0995 25.7738 27.0995C26.9573 27.0995 27.9167 26.1401 27.9167 24.9567V23.067C28.6785 22.8474 29.4062 22.5109 30.0726 22.0656C31.3451 21.2154 32.3368 20.0069 32.9225 18.593C33.5081 17.1792 33.6614 15.6234 33.3628 14.1224C33.0643 12.6214 32.3273 11.2427 31.2452 10.1606C30.163 9.07845 28.7843 8.34151 27.2833 8.04295C25.7824 7.74435 24.2266 7.89761 22.8127 8.48325C21.3988 9.06891 20.1904 10.0607 19.3401 11.3331C18.4899 12.6056 18.0361 14.1016 18.0361 15.632C18.0361 16.8154 18.9955 17.7748 20.179 17.7748C21.3624 17.7748 22.3218 16.8154 22.3218 15.632C22.3218 14.9492 22.5243 14.2818 22.9036 13.7141C23.2829 13.1464 23.822 12.704 24.4528 12.4427ZM25.7739 36.4241C24.0787 36.4203 22.7056 35.0451 22.7056 33.349C22.7056 31.6505 24.0825 30.2736 25.7809 30.2736L25.7879 30.2736C27.4831 30.2774 28.8562 31.6528 28.8562 33.349C28.8562 35.0475 27.4794 36.4241 25.7809 36.4241H25.7739Z" fill="white"/>
</g>
<defs>
<clipPath id="clip0_352_25">
<rect width="48" height="48" fill="white"/>
</clipPath>
</defs>
</svg>
