<svg width="26" height="26" viewBox="0 0 26 26" fill="none" xmlns="http://www.w3.org/2000/svg">
<g clip-path="url(#clip0_374_23)">
<path fill-rule="evenodd" clip-rule="evenodd" d="M2.67308 0.815917C3.19549 0.293494 3.90407 0 4.64288 0H23.2143C23.9531 0 24.6617 0.293494 25.1842 0.815917C25.7066 1.33834 26 2.04689 26 2.78571V21.3571C26 22.0959 25.7066 22.8046 25.1842 23.327C24.6617 23.8494 23.9531 24.1429 23.2143 24.1429H8.47147L1.1538 25.9723C0.82501 26.0544 0.477549 25.951 0.247277 25.7023C0.017004 25.4536 -0.0595027 25.0993 0.0476704 24.7778L1.85716 19.3494V2.78571C1.85716 2.04691 2.15066 1.33834 2.67308 0.815917ZM13.2453 6.73981C13.5869 6.5983 13.9629 6.56127 14.3256 6.63342C14.6883 6.70557 15.0215 6.88365 15.283 7.14513C15.5445 7.40664 15.7226 7.73981 15.7947 8.10253C15.8669 8.46523 15.8298 8.84119 15.6883 9.18287C15.5468 9.52452 15.3071 9.81656 14.9996 10.022C14.6921 10.2275 14.3306 10.3371 13.9608 10.3371C13.3198 10.3371 12.8001 10.8568 12.8001 11.4979V13.5182C12.8001 14.1592 13.3198 14.6789 13.9608 14.6789C14.6019 14.6789 15.1215 14.1592 15.1215 13.5182V12.4946C15.5342 12.3757 15.9284 12.1934 16.2893 11.9522C16.9786 11.4917 17.5158 10.8371 17.833 10.0712C18.1502 9.30538 18.2332 8.46267 18.0715 7.64963C17.9098 6.83661 17.5106 6.08979 16.9245 5.50364C16.3383 4.91749 15.5915 4.51832 14.7785 4.3566C13.9655 4.19486 13.1227 4.27787 12.3569 4.59509C11.591 4.91233 10.9365 5.44953 10.4759 6.13877C10.0154 6.82803 9.76956 7.63835 9.76956 8.46731C9.76956 9.10836 10.2892 9.62802 10.9303 9.62802C11.5713 9.62802 12.091 9.10836 12.091 8.46731C12.091 8.0975 12.2006 7.73598 12.4061 7.4285C12.6116 7.12099 12.9036 6.88135 13.2453 6.73981ZM13.9609 19.7297C13.0426 19.7277 12.2989 18.9828 12.2989 18.064C12.2989 17.144 13.0447 16.3982 13.9647 16.3982L13.9684 16.3982C14.8867 16.4003 15.6304 17.1453 15.6304 18.064C15.6304 18.9841 14.8846 19.7297 13.9646 19.7297H13.9609Z" fill="#333333"/>
</g>
<defs>
<clipPath id="clip0_374_23">
<rect width="26" height="26" fill="white"/>
</clipPath>
</defs>
</svg>
