<svg width="37" height="37" viewBox="0 0 37 37" fill="none" xmlns="http://www.w3.org/2000/svg">
<g clip-path="url(#clip0_389_27)">
<path fill-rule="evenodd" clip-rule="evenodd" d="M27.6896 0.227261C25.6026 -0.188912 23.4408 -0.0107675 21.4501 0.741412C19.4595 1.49359 17.72 2.78958 16.4298 4.48185C15.1396 6.1741 14.3504 8.19462 14.1521 10.3134C13.9956 11.9868 14.2126 13.6684 14.7807 15.2386L1.21776 28.8017C-0.352767 30.372 -0.326725 32.9264 1.2755 34.4645L2.75757 35.8872C4.30818 37.3759 6.76266 37.3576 8.29086 35.8459L22.0408 22.2449C23.5585 22.7365 25.1681 22.9057 26.7654 22.7344C28.8604 22.5098 30.8523 21.7086 32.5189 20.4197C34.1857 19.1308 35.4625 17.4049 36.2072 15.4338C36.9512 13.4643 37.1346 11.3273 36.7374 9.25985C36.6526 8.80255 36.4726 8.36815 36.2093 7.98459C35.9451 7.59961 35.6028 7.27451 35.2048 7.03036C34.6839 6.71076 34.0118 6.79018 33.5794 7.22236L28.2937 12.5081L28.2768 12.5254C28.1537 12.6533 28.0057 12.755 27.8423 12.8245C27.6787 12.894 27.503 12.9298 27.3254 12.9298C27.1478 12.9298 26.972 12.894 26.8084 12.8245C26.6451 12.755 26.4971 12.6533 26.374 12.5254C26.3514 12.502 26.3279 12.4794 26.3036 12.4577L24.3329 10.6944C24.1063 10.4503 23.9799 10.1292 23.9799 9.79532C23.9799 9.45127 24.1141 9.12086 24.3538 8.87426L29.6342 3.59399C30.0153 3.21275 30.1268 2.63811 29.9154 2.14202C29.7243 1.69307 29.437 1.2916 29.0736 0.966024C28.71 0.64045 28.2795 0.398718 27.8125 0.257939C27.772 0.245757 27.7308 0.235519 27.6896 0.227261Z" fill="white"/>
</g>
<defs>
<clipPath id="clip0_389_27">
<rect width="37" height="37" fill="white"/>
</clipPath>
</defs>
</svg>
