<svg width="172" height="172" viewBox="0 0 172 172" fill="none" xmlns="http://www.w3.org/2000/svg">
<path fill-rule="evenodd" clip-rule="evenodd" d="M88.4422 8.94822C86.8841 8.27312 85.1159 8.27312 83.5578 8.94822L3.70069 43.5483C1.45404 44.5217 0 46.7363 0 49.1848C0 51.6333 1.45404 53.8479 3.70069 54.8214L14.6669 59.5728V128.263C9.33074 130.63 5.60877 135.975 5.60877 142.189C5.60877 150.598 12.4261 157.416 20.8358 157.416C29.2455 157.416 36.0629 150.598 36.0629 142.189C36.0629 135.968 32.3338 130.619 26.9894 128.255V64.9118L83.5578 89.4214C85.1159 90.0965 86.8841 90.0965 88.4422 89.4214L168.3 54.8214C170.545 53.8479 172 51.6333 172 49.1848C172 46.7363 170.545 44.5217 168.3 43.5483L88.4422 8.94822ZM36.3128 114.914L36.2512 85.6638L77.4467 103.513C82.9002 105.876 89.0885 105.876 94.5419 103.513L135.745 85.6606L135.751 114.899C135.751 116.242 135.311 117.547 134.499 118.617L129.608 114.901C134.499 118.617 134.502 118.614 134.499 118.617L134.49 118.628L134.481 118.641L134.457 118.672L134.395 118.752L134.207 118.985C134.054 119.172 133.847 119.419 133.581 119.719C133.052 120.318 132.294 121.127 131.3 122.074C129.312 123.968 126.367 126.425 122.399 128.86C114.423 133.755 102.42 138.492 85.9967 138.492C69.573 138.492 57.5854 133.755 49.6237 128.856C45.6627 126.42 42.7262 123.962 40.7442 122.066C39.7528 121.118 38.9974 120.308 38.4698 119.708C38.2057 119.408 37.9982 119.16 37.8461 118.973L37.6594 118.74L37.5969 118.659L37.5732 118.628L37.5633 118.615C37.5612 118.613 37.5546 118.604 42.4551 114.901L37.5546 118.604C36.7515 117.541 36.3156 116.246 36.3128 114.914Z" fill="white"/>
</svg>
